# xmcd
#
# Track frame offsets:
#	150
#	17624
#	32033
#	44517
#	64197
#	79596
#	98316
#	116821
#	133713
#	146587
#	164686
#	186794
#	206106
#	228497
#	246652
#	266533
#	285658
#	306024
#
# Disc length: 4363 seconds
#
# Revision: 1
# Processed by: cddbd v1.5.2PL0 Copyright (c) Steve Scherf et al.
# Submitted via: audiograbber 1.83.01
#
DISCID=06110912
DTITLE=Вячеслав Добрынин - Избранное
DYEAR=1900
DGENRE=
TTITLE0=Синий туман
TTITLE1=Бабушки старушки
TTITLE2=Голубое озеро
TTITLE3=Не сыпь мне соль на рану
TTITLE4=Спасатель
TTITLE5=Казино
TTITLE6=Пиковая дама
TTITLE7=Где же ты была
TTITLE8=Киса-киса
TTITLE9=Попытка
TTITLE10=Я боюсь твоей любви
TTITLE11=Я без тебя пропаду
TTITLE12=Никто тебя не любит так, как я
TTITLE13=Раз, два, три
TTITLE14=Не берите в голову
TTITLE15=От станции ''Любовь'' до станции ''Разлука''
TTITLE16=Ах, какая женщина
TTITLE17=Не забывайте друзей
EXTD=
EXTT0=
EXTT1=
EXTT2=
EXTT3=
EXTT4=
EXTT5=
EXTT6=
EXTT7=
EXTT8=
EXTT9=
EXTT10=
EXTT11=
EXTT12=
EXTT13=
EXTT14=
EXTT15=
EXTT16=
EXTT17=
PLAYORDER=
